<?xml version="1.0" encoding="UTF-8"?>
<svg id="Capa_2" data-name="Capa 2" xmlns="http://www.w3.org/2000/svg" viewBox="0 0 52.14 52.14">
  <defs>
    <style>
      .cls-1 {
        fill: #fa5649;
      }
    </style>
  </defs>
  <g id="Capa_1-2" data-name="Capa 1">
    <path class="cls-1" d="M51.02,39.37c1.48,1.45,1.5,3.81.05,5.29l-5.96,6.07c-1.44,1.47-3.81,1.49-5.28.05l-10.98-10.79c-1.48-1.44-3.85-1.42-5.29.05l-10.78,10.99c-1.41,1.42-3.67,1.49-5.15.17l-.14-.13-6.07-5.96c-1.48-1.45-1.5-3.81-.05-5.29l10.78-10.98c1.45-1.48,1.43-3.84-.05-5.29L1.12,12.77c-1.48-1.45-1.5-3.81-.05-5.29L7.03,1.41c1.44-1.47,3.81-1.49,5.29-.05l10.98,10.78c1.47,1.45,3.84,1.43,5.29-.05L39.37,1.11c1.44-1.47,3.81-1.49,5.28-.05l1.93,1.89,4.14,4.07c1.48,1.45,1.5,3.81.05,5.29l-10.78,10.98c-1.44,1.48-1.42,3.84.05,5.29l10.98,10.78Z"/>
  </g>
</svg>