<?xml version="1.0" encoding="UTF-8"?>
<svg id="Capa_2" data-name="Capa 2" xmlns="http://www.w3.org/2000/svg" viewBox="0 0 53.23 45.1">
  <defs>
    <style>
      .cls-1 {
        fill: #8bff62;
      }
    </style>
  </defs>
  <g id="Capa_1-2" data-name="Capa 1">
    <path class="cls-1" d="M52.36,10.02l-30.05,33.31s-.05.06-.08.1l-.51.56c-1.06,1.19-2.79,1.44-4.13.69-.19-.1-.38-.23-.55-.38l-.76-.65L1.19,30.85c-1.44-1.21-1.6-3.36-.36-4.79l4.34-4.96c1.21-1.39,3.31-1.54,4.71-.35l5.91,5.01c1.39,1.19,3.46,1.05,4.69-.3L42.42,1.11c1.25-1.38,3.36-1.49,4.75-.26l4.63,4.13.04.04.26.23c1.4,1.24,1.51,3.39.26,4.78Z"/>
  </g>
</svg>