<?xml version="1.0" encoding="UTF-8"?>
<svg id="Capa_2" data-name="Capa 2" xmlns="http://www.w3.org/2000/svg" xmlns:xlink="http://www.w3.org/1999/xlink" viewBox="0 0 538.36 254.22">
  <defs>
    <style>
      .cls-1 {
        stroke: #fa5649;
      }

      .cls-1, .cls-2, .cls-3, .cls-4 {
        fill: none;
      }

      .cls-1, .cls-5, .cls-3, .cls-4 {
        stroke-miterlimit: 10;
        stroke-width: 4px;
      }

      .cls-5 {
        fill: #99c44c;
      }

      .cls-5, .cls-3 {
        stroke: #8bff62;
      }

      .cls-6 {
        clip-path: url(#clippath-1);
      }

      .cls-7 {
        fill: #8bff62;
      }

      .cls-4 {
        stroke: #f542cb;
      }

      .cls-8 {
        fill: #fa5649;
      }

      .cls-9 {
        clip-path: url(#clippath);
      }
    </style>
    <clipPath id="clippath">
      <polygon class="cls-2" points="276.37 39.66 185.94 65.78 180.25 0 276.37 0 276.37 39.66"/>
    </clipPath>
    <clipPath id="clippath-1">
      <polygon class="cls-2" points="147.42 38.52 147.42 254.22 263.57 254.22 256.46 113.19 303.27 98.37 313.94 141.65 346.07 126.7 373.63 129.48 380.9 4.74 147.42 38.52"/>
    </clipPath>
  </defs>
  <g id="Capa_1-2" data-name="Capa 1">
    <g class="cls-9">
      <g>
        <path class="cls-3" d="M238.34,12.32l-26.59,36.14s-.04.07-.06.11l-.45.61c-.94,1.29-2.63,1.71-4.04,1.09-.2-.08-.4-.19-.58-.32l-.82-.57-16.29-11.24c-1.55-1.06-1.93-3.19-.84-4.73l3.82-5.37c1.07-1.5,3.14-1.86,4.66-.82l6.38,4.4c1.5,1.04,3.55.7,4.64-.77l19.4-26.41c1.11-1.49,3.2-1.82,4.7-.73l5.01,3.65.04.03.28.2c1.52,1.09,1.84,3.22.74,4.73Z"/>
        <path class="cls-3" d="M261.44,27.36l-27.11,36.85c-1.07,1.48-3.12,1.82-4.62.79l-8.56-5.91-8.56-5.91c-1.51-1.06-1.91-3.1-.9-4.62.02-.04.04-.07.06-.11l26.59-36.14c1.11-1.51.78-3.63-.74-4.73l-.28-.2,18.26,11.52h.01s5.11,3.71,5.11,3.71c1.52,1.1,1.84,3.22.74,4.73Z"/>
        <line class="cls-5" x1="205.79" y1="49.39" x2="221.15" y2="59.09"/>
      </g>
    </g>
    <g class="cls-6">
      <g>
        <path class="cls-4" d="M338.9,23.4l-.12,18.55-.44,65.14c-.01.51-.18.98-.49,1.35-.24.3-.56.54-.94.67l-18.59,6.64c-.34.12-.68.15-1.01.11-.58-.08-1.09-.39-1.43-.85h-.01c-.26-.35-.42-.77-.43-1.24l-.96-37.56-.45-17.65c-.03-1.43-1.42-2.43-2.79-2l-93.93,29.02c-.97.3-1.59,1.22-1.52,2.22l5.73,76.52.06.77c.01.07.01.14.01.21-.3,28.65-9.14,50.03-31.52,57.39-.22.08-.46.15-.7.16-5.33.34-10.1.25-13.69-1.13l-3.34-1.99h-.02c-1.99-1.8-3.2-4.45-3.41-8.32-.27-4.96,1.28-9.82,3.98-13.98,4.52-6.99,10.43-13.11,17.39-18.28.42-.31.89-.58,1.34-.86,4.31-2.68,6.64-9.02,5.52-21.69l-5.81-89.11c-.07-1,.56-1.91,1.52-2.2l143.26-43.97c.88-.27,1.76.05,2.29.68h.01c.31.39.49.87.49,1.4Z"/>
        <path class="cls-4" d="M361.8,36.97l-.57,83.7c0,.91-.57,1.71-1.43,2.02,0,0-12.74,4.55-17.54,6.26-1.14.41-2.4.29-3.45-.31-5.36-3.07-21.84-12.52-21.55-12.62l19.65-6.91c.38-.13.7-.37.94-.67.31-.37.48-.84.49-1.35l.44-65.14-.12-20.17c.89.24,21.9,12.52,21.9,12.52.86.58,1.25,1.65,1.24,2.67Z"/>
        <path class="cls-4" d="M238.69,101.38l5.78,77.29c.01.07.01.14.01.21-.35,27.63-8.18,47.5-29.59,56.59-1.23.53-3.37.75-4.66,1.07-3.73.89-8.43.6-12.08-1.48l-.59-.35-21.88-12.99c3.59,1.38,8.36,1.47,13.69,1.13.24-.01.48-.08.7-.16,22.38-7.36,31.22-28.74,31.52-57.39,0-.07,0-.14-.01-.21l-.06-.77-5.73-76.52c-.07-1,.55-1.92,1.52-2.22l93.93-29.02c1.37-.43,2.76.57,2.79,2l.45,17.65-2.14.66-72.14,22.28c-.96.3-1.59,1.22-1.51,2.23Z"/>
      </g>
    </g>
    <g>
      <path class="cls-1" d="M358.22,163.29c1.59,1.34,1.79,3.69.45,5.27l-5.48,6.51c-1.32,1.57-3.69,1.78-5.26.45l-11.77-9.92c-1.58-1.32-3.95-1.12-5.27.45l-9.91,11.78c-1.29,1.52-3.55,1.76-5.12.57l-.15-.12-6.51-5.48c-1.59-1.34-1.79-3.69-.45-5.27l9.91-11.77c1.34-1.59,1.13-3.94-.45-5.27l-11.77-9.91c-1.59-1.34-1.79-3.69-.45-5.27l5.48-6.51c1.32-1.57,3.69-1.78,5.27-.45l11.77,9.91c1.57,1.34,3.94,1.13,5.27-.45l9.91-11.77c1.32-1.57,3.69-1.78,5.26-.45l2.06,1.74,4.44,3.74c1.59,1.34,1.79,3.69.45,5.27l-9.91,11.77c-1.32,1.58-1.12,3.94.45,5.27l11.77,9.91Z"/>
      <path class="cls-1" d="M372.79,180.45l-5.48,6.49c-1.32,1.58-3.76,1.72-5.44.31l-12.48-10.51c-1.69-1.42-4.13-1.28-5.45.3l-9.91,11.77c-1.34,1.57-3.78,1.71-5.45.3l-6.9-5.81-.15-.14-5.68-4.78c1.57,1.2,3.83.96,5.12-.57l9.91-11.78c1.32-1.57,3.69-1.78,5.27-.45l11.77,9.92c1.57,1.32,3.94,1.12,5.26-.45l5.48-6.51c1.34-1.59,1.13-3.94-.45-5.27l-11.77-9.91c-1.57-1.34-1.78-3.69-.45-5.27l9.91-11.77c1.34-1.59,1.13-3.94-.45-5.27l5.98,5.03,5.7,4.8,1.21,1.01c1.67,1.42,1.95,3.84.63,5.42l-9.92,11.77c-1.32,1.58-1.05,4.01.63,5.42l12.48,10.51c1.69,1.41,1.96,3.84.63,5.42Z"/>
      <path class="cls-1" d="M346.07,148.17l9.92-11.77c1.32-1.57,3.76-1.71,5.44-.3"/>
      <path class="cls-1" d="M321.53,183.18c-1.55-1.43-1.77-3.76-.48-5.28l9.91-11.77"/>
    </g>
    <polygon class="cls-2" points="163.19 65.68 187.26 68.99 187.26 83.81 171.8 82.78 171.8 90.73 187.26 91.22 187.26 104.62 171.8 105.12 171.8 113.07 187.26 112.03 187.26 126.89 163.19 130.22 163.19 65.68"/>
    <g>
      <path class="cls-2" d="M43.25,86.81c14.06,1.76,32.03,3.97,32,26.24,0,25.37-14.87,33.54-32.43,36.08-19.45,2.74-37.29.74-39.7-32.67l24.89-1.18c2.53,7.71,8.26,9.31,14.8,8.83,6.27-.46,13.66-2.9,13.66-10.17,0-4.13-6-4.56-14.09-5.01-15.35-.96-39.31-2.41-39.26-29.59,0-31.06,20.2-35.58,39.7-32.76,17.52,2.74,30.8,8.18,32.43,36.15l-18.77-.88c-2.18-7.56-7.36-9.7-13.66-10.17-6.5-.48-14.8.72-14.8,8.83,0,4.47,6.8,5.3,15.23,6.31Z"/>
      <path class="cls-7" d="M43.25,86.81l-.11,4.13c3.62.41,7.49.85,11.2,1.63,5.41,1.12,10.5,3.05,13.94,6.43,1.7,1.65,2.99,3.61,3.82,5.86.83,2.25,1.29,4.77,1.3,8.22v.06c0,5.66-.77,9.93-2.11,13.56-1.02,2.74-2.41,5.14-4.18,7.24-2.67,3.19-6.2,5.64-10.29,7.42-4.18,1.83-8.97,2.97-14.01,3.64h0c-9.37,1.23-18.24,1.21-24.81-2.71-3.38-2.01-6.1-4.93-8.14-9.09-2.06-4.21-3.48-9.75-4.03-17.41l-2.72.67v4.6l24.89-1.47v-4.31l-2.11,2.27c.82,2.49,1.93,4.51,3.2,6.04,1.89,2.28,4.1,3.51,6.43,4.16,2.31.64,4.76.71,7.28.5,3.29-.29,6.86-1.06,9.82-2.87,1.46-.91,2.79-2.05,3.91-3.85.55-.9,1.05-1.99,1.41-3.31.36-1.31.57-2.85.56-4.38,0-.71-.07-1.45-.2-2.11-.25-1.27-.69-2.21-1.13-2.86-.79-1.14-1.64-1.68-2.59-2.15-1.44-.67-3.17-1.04-5.2-1.32-2.04-.28-4.38-.45-6.91-.62h0c-3.71-.28-7.85-.58-12-1.27-6.4-1.05-12.83-3.1-17.42-6.97-2.34-1.96-4.15-4.32-5.35-7.03-1.2-2.75-1.87-5.82-1.88-9.97v-.06s0,0,0,0h0c.01-6.85,1.12-11.86,3.04-15.92,1.44-3.01,3.37-5.49,5.77-7.47,3.53-2.92,8.01-4.67,12.94-5.45,4.81-.76,10.02-.61,15.21.08h-.01c8.91,1.26,16.56,3.34,21.78,8.18,2.56,2.36,4.55,5.31,6.01,9.15,1.45,3.81,2.43,8.59,2.81,15.04l1.84-.36v-3.76l-18.77-1.1v3.98l1.78-1.87c-.69-2.4-1.63-4.41-2.72-5.99-1.65-2.4-3.62-3.86-5.74-4.82-2.16-.97-4.5-1.42-6.98-1.63-3.34-.27-7.12-.18-10.38,1.16-1.65.7-3.2,1.7-4.51,3.48-.65.9-1.25,2.03-1.68,3.44-.43,1.4-.67,3.07-.67,4.77,0,.78.08,1.59.24,2.34.3,1.41.83,2.48,1.36,3.22.94,1.29,1.92,1.91,3.02,2.46,1.64.78,3.57,1.25,5.78,1.62,2.18.37,4.6.63,7.16.91h0s.11-4.13.11-4.13l.11-4.12c-4.16-.54-7.9-1.05-10.44-1.9-1.27-.41-2.23-.96-2.61-1.34l-.17-.18h0s-.22.47-.22.47l.26-.4-.04-.08-.22.48.26-.4-.73,1.11.9-.6c-.05-.25-.13-.43-.17-.52l-.73,1.11.9-.6-1.06.71,1.15.05c0-.23-.03-.52-.08-.76l-1.06.71,1.15.05c0-.34.03-.5.09-.72.06-.19.16-.44.35-.74.33-.52.94-1.13,1.77-1.63,1.24-.76,2.91-1.28,4.71-1.54,1.78-.26,3.69-.29,5.47-.17,3.07.18,5.77.82,7.79,2.13,1,.65,1.83,1.45,2.5,2.4.66.95,1.17,2.02,1.57,3.38l.6,2.05,22.03.78-.24-4.19c-.43-7.48-1.64-13.74-3.53-18.76-1.43-3.81-3.24-6.9-5.31-9.38-3.15-3.79-6.91-6.24-11.12-8.01-4.31-1.81-9.12-2.9-14.27-3.77h0s0,0,0,0c-9.64-1.49-19.54-1.33-27.64,3.4-4.17,2.45-7.86,6.18-10.55,11.71C1.9,63.14.34,70.5.36,79.2v-.02s0,.09,0,.09c0,4.02.48,7.76,1.4,11.07.79,2.89,1.9,5.42,3.21,7.59,2.28,3.76,5.12,6.44,8.23,8.45,4.58,2.95,9.75,4.46,14.88,5.36,4.99.86,9.93,1.11,14.21,1.33h0c4.08.18,7.61.38,9.91.99,1.13.28,1.98.72,2.31,1.05l.15.16h0s.18-.44.18-.44l-.22.38.04.07.18-.45-.22.38.63-1.09-.77.63c.05.22.11.38.14.46l.63-1.09-.77.63.92-.75-.99.05c0,.21.02.48.07.7l.92-.75-.99.05c0,.27-.02.39-.08.6-.05.17-.14.41-.31.71-.29.52-.84,1.16-1.58,1.73-1.12.86-2.65,1.57-4.33,2.04-1.69.48-3.54.76-5.29.86-3.11.2-5.96-.13-8.14-1.27-1.11-.57-2.04-1.32-2.79-2.25-.75-.94-1.33-2.03-1.79-3.41l-.69-2.12-29.41,1.05.37,5.17c.66,9.13,2.49,16.53,5.3,22.14,2.07,4.16,4.64,7.27,7.49,9.51,4.21,3.31,9.01,4.79,14.12,5.28,4.97.48,10.23,0,15.54-.8h0c9.14-1.45,17.6-4.29,23.91-10.38,3.06-2.97,5.67-6.8,7.51-11.82,1.83-4.95,2.85-11.09,2.84-18.11v-.06c0-3.25-.31-6.25-.91-8.91-.52-2.33-1.26-4.39-2.14-6.17-1.56-3.14-3.56-5.45-5.81-7.26-3.43-2.75-7.51-4.39-11.77-5.52-4.37-1.16-8.93-1.78-13.08-2.35h0s-.11,4.12-.11,4.12Z"/>
      <path class="cls-2" d="M96.66,56.53l16.57,2.28,17.03,75.97-13.78,1.91-2.63-13.01-17.9,1.63-3.03,14.64-18.03,2.5,21.76-85.91ZM100.19,104.92l9.81-.23-4.81-23.68-5,23.91Z"/>
      <path class="cls-7" d="M96.66,56.53v3.51l15.71,1.98,15.76,69.92-10.76,1.36-2.61-13-19.84,1.58-3.05,14.65-13.93,1.76,20.12-79.92-1.4-1.84v3.51-3.51l-1.42-1.86-23.45,92,22.19-3.33,3.01-14.62,15.96-1.64,2.64,13.02,16.77-2.52-18.27-81.96-18.38-2.74-.46,1.79,1.42,1.86ZM100.19,104.92v3.47l12.08-.43-7.08-35.04-7.48,35.56,2.47-.09v-3.47l1.41,1.42,3.59-17.25,2.5,12.26-7.5.09v3.47l1.41,1.42-1.41-1.42Z"/>
      <polygon class="cls-2" points="143.99 111.52 151.92 64.13 162.5 65.59 150.05 132.04 137.6 133.76 122.3 60.05 135.53 61.87 143.99 111.52"/>
      <polygon class="cls-7" points="143.99 111.52 145.03 112.65 152.62 67.08 160.9 68.12 149.39 129.24 138.33 130.64 124.47 63.54 134.73 64.83 143.99 118.87 145.03 112.65 143.99 111.52 145.03 110.28 136.31 58.94 120.09 56.52 136.87 136.9 150.71 134.82 164.09 63.08 151.22 61.16 142.94 110.38 143.99 111.52 145.03 110.28 143.99 111.52"/>
      <polygon class="cls-7" points="163.19 65.68 163.19 68.41 186.48 71.34 186.48 81.3 170.9 80.07 170.9 93.34 186.48 93.65 186.48 102.18 170.9 102.5 170.9 115.77 186.48 114.54 186.48 124.54 164.16 127.37 164.16 65.81 163.19 65.68 163.19 68.41 163.19 65.68 162.21 65.55 162.21 133.1 188.04 129.22 188.04 109.53 172.7 110.39 172.7 107.71 188.04 107.03 188.04 88.8 172.7 88.14 172.7 85.46 188.04 86.3 188.04 66.66 162.21 62.8 162.21 65.55 163.19 65.68"/>
    </g>
    <polygon class="cls-2" points="509.71 105.94 509.71 139.55 535.34 143.35 535.34 37.33 509.71 41.13 509.71 74.74 499.63 75.22 479.87 45.55 456.03 49.08 480.21 90.34 456.03 131.6 479.87 135.13 499.63 105.46 509.71 105.94"/>
    <polygon class="cls-8" points="509.71 105.94 512.31 106.06 512.31 135.74 532.37 138.46 532.37 42.22 512.31 44.94 512.31 78.82 498.67 79.29 479.03 49.46 460.6 51.96 483.33 90.34 460.6 128.73 479.03 131.22 498.67 101.39 512.31 101.86 512.31 106.06 509.71 105.94 509.71 110.1 500.59 109.56 480.71 139.06 451.6 134.38 477.15 90.34 451.6 46.3 480.71 41.62 500.59 71.12 507.15 70.73 507.15 37.38 538.36 32.36 538.36 148.32 507.15 143.3 507.15 105.82 509.71 105.94 509.71 110.1 509.71 105.94"/>
    <polygon class="cls-2" points="438.19 51.72 438.19 128.96 453.72 131.26 453.72 49.42 438.19 51.72"/>
    <polygon class="cls-8" points="438.19 51.72 439.79 51.49 439.79 125.9 451.94 127.55 451.94 53.13 438.19 54.99 438.19 51.72 439.79 51.49 438.19 51.72 438.19 48.46 455.52 45.67 455.52 135.01 436.61 131.97 436.61 48.71 438.19 48.46 438.19 51.72"/>
    <polygon class="cls-2" points="417.54 54.78 417.54 103.36 395.01 102.13 395.01 122.56 430.65 127.84 430.65 52.84 417.54 54.78"/>
    <polygon class="cls-8" points="417.54 54.78 418.9 54.58 418.9 106.46 396.12 104.94 396.12 119.98 429.15 124.46 429.15 56.22 417.54 57.79 417.54 54.78 418.9 54.58 417.54 54.78 417.54 51.77 432.15 49.43 432.15 131.26 393.91 125.11 393.91 99.36 416.2 100.29 416.2 51.99 417.54 51.77 417.54 54.78"/>
    <polygon class="cls-2" points="382.17 60.02 382.17 101.44 365.56 100.54 365.56 118.2 391.62 122.06 391.62 58.62 382.17 60.02"/>
    <polygon class="cls-8" points="382.17 60.02 383.16 59.88 383.16 104.07 366.39 102.95 366.39 115.95 390.55 119.23 390.55 61.45 382.17 62.59 382.17 60.02 383.16 59.88 382.17 60.02 382.17 57.46 392.7 55.77 392.7 124.92 364.74 120.42 364.74 98.15 381.2 98.83 381.2 57.61 382.17 57.46 382.17 60.02"/>
    <g>
      <path class="cls-3" d="M267.22,100.73v22.55h-8.79v-22.55h8.79Z"/>
      <path class="cls-3" d="M280.43,123.31v-15.4h-10.45v-7.15h29.7v7.15h-10.45v15.4h-8.79Z"/>
    </g>
    <g>
      <path class="cls-1" d="M298.13,126.41v20.99h-8.18v-20.99h8.18Z"/>
      <path class="cls-1" d="M269.48,147.43v-14.33h-9.73v-6.65h27.64v6.65h-9.73v14.33h-8.18Z"/>
    </g>
  </g>
</svg>