<?xml version="1.0" encoding="UTF-8"?>
<svg id="Capa_2" data-name="Capa 2" xmlns="http://www.w3.org/2000/svg" xmlns:xlink="http://www.w3.org/1999/xlink" viewBox="0 0 114.21 113.63">
  <defs>
    <style>
      .cls-1 {
        stroke: #fa5649;
      }

      .cls-1, .cls-2, .cls-3 {
        fill: none;
      }

      .cls-1, .cls-4, .cls-3 {
        stroke-miterlimit: 10;
        stroke-width: 4px;
      }

      .cls-4 {
        fill: #99c44c;
      }

      .cls-4, .cls-3 {
        stroke: #8bff62;
      }

      .cls-5 {
        clip-path: url(#clippath);
      }
    </style>
    <clipPath id="clippath">
      <polygon class="cls-2" points="84.02 63.18 59.95 52.6 46.1 59.66 9.65 85.1 0 0 96.12 0 84.02 63.18"/>
    </clipPath>
  </defs>
  <g id="Capa_1-2" data-name="Capa 1">
    <g>
      <g class="cls-5">
        <g>
          <path class="cls-3" d="M58.1,12.32l-26.59,36.14s-.04.07-.06.11l-.45.61c-.94,1.29-2.63,1.71-4.04,1.09-.2-.08-.4-.19-.58-.32l-.82-.57-16.29-11.24c-1.55-1.06-1.93-3.19-.84-4.73l3.82-5.37c1.07-1.5,3.14-1.86,4.66-.82l6.38,4.4c1.5,1.04,3.55.7,4.64-.77L47.32,4.45c1.11-1.49,3.2-1.82,4.7-.73l5.01,3.65.04.03.28.2c1.52,1.09,1.84,3.22.74,4.73Z"/>
          <path class="cls-3" d="M81.19,27.36l-27.11,36.85c-1.07,1.48-3.12,1.82-4.62.79l-8.56-5.91-8.56-5.91c-1.51-1.06-1.91-3.1-.9-4.62.02-.04.04-.07.06-.11L58.1,12.32c1.11-1.51.78-3.63-.74-4.73l-.28-.2,18.26,11.52h.01s5.11,3.71,5.11,3.71c1.52,1.1,1.84,3.22.74,4.73Z"/>
          <line class="cls-4" x1="25.54" y1="49.39" x2="40.9" y2="59.09"/>
        </g>
      </g>
      <g>
        <path class="cls-1" d="M96.79,84.82c1.59,1.34,1.79,3.69.45,5.27l-5.48,6.51c-1.32,1.57-3.69,1.78-5.26.45l-11.77-9.92c-1.58-1.32-3.95-1.12-5.27.45l-9.91,11.78c-1.29,1.52-3.55,1.76-5.12.57l-.15-.12-6.51-5.48c-1.59-1.34-1.79-3.69-.45-5.27l9.91-11.77c1.34-1.59,1.13-3.94-.45-5.27l-11.77-9.91c-1.59-1.34-1.79-3.69-.45-5.27l5.48-6.51c1.32-1.57,3.69-1.78,5.27-.45l11.77,9.91c1.57,1.34,3.94,1.13,5.27-.45l9.91-11.77c1.32-1.57,3.69-1.78,5.26-.45l2.06,1.74,4.44,3.74c1.59,1.34,1.79,3.69.45,5.27l-9.91,11.77c-1.32,1.58-1.12,3.94.45,5.27l11.77,9.91Z"/>
        <path class="cls-1" d="M111.37,101.98l-5.48,6.49c-1.32,1.58-3.76,1.72-5.44.31l-12.48-10.51c-1.69-1.42-4.13-1.28-5.45.3l-9.91,11.77c-1.34,1.57-3.78,1.71-5.45.3l-6.9-5.81-.15-.14-5.68-4.78c1.57,1.2,3.83.96,5.12-.57l9.91-11.78c1.32-1.57,3.69-1.78,5.27-.45l11.77,9.92c1.57,1.32,3.94,1.12,5.26-.45l5.48-6.51c1.34-1.59,1.13-3.94-.45-5.27l-11.77-9.91c-1.57-1.34-1.78-3.69-.45-5.27l9.91-11.77c1.34-1.59,1.13-3.94-.45-5.27l5.98,5.03,5.7,4.8,1.21,1.01c1.67,1.42,1.95,3.84.63,5.42l-9.92,11.77c-1.32,1.58-1.05,4.01.63,5.42l12.48,10.51c1.69,1.41,1.96,3.84.63,5.42Z"/>
        <path class="cls-1" d="M84.65,69.7l9.92-11.77c1.32-1.57,3.76-1.71,5.44-.3"/>
        <path class="cls-1" d="M60.11,104.71c-1.55-1.43-1.77-3.76-.48-5.28l9.91-11.77"/>
      </g>
    </g>
  </g>
</svg>