<?xml version="1.0" encoding="UTF-8"?>
<svg id="Capa_2" data-name="Capa 2" xmlns="http://www.w3.org/2000/svg" xmlns:xlink="http://www.w3.org/1999/xlink" viewBox="0 0 233.48 254.22">
  <defs>
    <style>
      .cls-1 {
        stroke: #fa5649;
      }

      .cls-1, .cls-2, .cls-3, .cls-4 {
        fill: none;
      }

      .cls-1, .cls-5, .cls-3, .cls-4 {
        stroke-miterlimit: 10;
        stroke-width: 4px;
      }

      .cls-5 {
        fill: #99c44c;
      }

      .cls-5, .cls-3 {
        stroke: #8bff62;
      }

      .cls-6 {
        clip-path: url(#clippath-1);
      }

      .cls-4 {
        stroke: #f542cb;
      }

      .cls-7 {
        clip-path: url(#clippath);
      }
    </style>
    <clipPath id="clippath">
      <polygon class="cls-2" points="128.95 39.66 38.52 65.78 32.83 0 128.95 0 128.95 39.66"/>
    </clipPath>
    <clipPath id="clippath-1">
      <polygon class="cls-2" points="0 38.52 0 254.22 116.15 254.22 109.04 113.19 155.85 98.37 166.52 141.65 198.65 126.7 226.22 129.48 233.48 4.74 0 38.52"/>
    </clipPath>
  </defs>
  <g id="Capa_1-2" data-name="Capa 1">
    <g class="cls-7">
      <g>
        <path class="cls-3" d="M90.93,12.32l-26.59,36.14s-.04.07-.06.11l-.45.61c-.94,1.29-2.63,1.71-4.04,1.09-.2-.08-.4-.19-.58-.32l-.82-.57-16.29-11.24c-1.55-1.06-1.93-3.19-.84-4.73l3.82-5.37c1.07-1.5,3.14-1.86,4.66-.82l6.38,4.4c1.5,1.04,3.55.7,4.64-.77l19.4-26.41c1.11-1.49,3.2-1.82,4.7-.73l5.01,3.65.04.03.28.2c1.52,1.09,1.84,3.22.74,4.73Z"/>
        <path class="cls-3" d="M114.02,27.36l-27.11,36.85c-1.07,1.48-3.12,1.82-4.62.79l-8.56-5.91-8.56-5.91c-1.51-1.06-1.91-3.1-.9-4.62.02-.04.04-.07.06-.11l26.59-36.14c1.11-1.51.78-3.63-.74-4.73l-.28-.2,18.26,11.52h.01s5.11,3.71,5.11,3.71c1.52,1.1,1.84,3.22.74,4.73Z"/>
        <line class="cls-5" x1="58.37" y1="49.39" x2="73.73" y2="59.09"/>
      </g>
    </g>
    <g class="cls-6">
      <g>
        <path class="cls-4" d="M191.48,23.4l-.12,18.55-.44,65.14c-.01.51-.18.98-.49,1.35-.24.3-.56.54-.94.67l-18.59,6.64c-.34.12-.68.15-1.01.11-.58-.08-1.09-.39-1.43-.85h-.01c-.26-.35-.42-.77-.43-1.24l-.96-37.56-.45-17.65c-.03-1.43-1.42-2.43-2.79-2l-93.93,29.02c-.97.3-1.59,1.22-1.52,2.22l5.73,76.52.06.77c.01.07.01.14.01.21-.3,28.65-9.14,50.03-31.52,57.39-.22.08-.46.15-.7.16-5.33.34-10.1.25-13.69-1.13l-3.34-1.99h-.02c-1.99-1.8-3.2-4.45-3.41-8.32-.27-4.96,1.28-9.82,3.98-13.98,4.52-6.99,10.43-13.11,17.39-18.28.42-.31.89-.58,1.34-.86,4.31-2.68,6.64-9.02,5.52-21.69l-5.81-89.11c-.07-1,.56-1.91,1.52-2.2L188.69,21.32c.88-.27,1.76.05,2.29.68h.01c.31.39.49.87.49,1.4Z"/>
        <path class="cls-4" d="M214.38,36.97l-.57,83.7c0,.91-.57,1.71-1.43,2.02,0,0-12.74,4.55-17.54,6.26-1.14.41-2.4.29-3.45-.31-5.36-3.07-21.84-12.52-21.55-12.62l19.65-6.91c.38-.13.7-.37.94-.67.31-.37.48-.84.49-1.35l.44-65.14-.12-20.17c.89.24,21.9,12.52,21.9,12.52.86.58,1.25,1.65,1.24,2.67Z"/>
        <path class="cls-4" d="M91.27,101.38l5.78,77.29c.01.07.01.14.01.21-.35,27.63-8.18,47.5-29.59,56.59-1.23.53-3.37.75-4.66,1.07-3.73.89-8.43.6-12.08-1.48l-.59-.35-21.88-12.99c3.59,1.38,8.36,1.47,13.69,1.13.24-.01.48-.08.7-.16,22.38-7.36,31.22-28.74,31.52-57.39,0-.07,0-.14-.01-.21l-.06-.77-5.73-76.52c-.07-1,.55-1.92,1.52-2.22l93.93-29.02c1.37-.43,2.76.57,2.79,2l.45,17.65-2.14.66-72.14,22.28c-.96.3-1.59,1.22-1.51,2.23Z"/>
      </g>
    </g>
    <g>
      <path class="cls-1" d="M210.8,163.29c1.59,1.34,1.79,3.69.45,5.27l-5.48,6.51c-1.32,1.57-3.69,1.78-5.26.45l-11.77-9.92c-1.58-1.32-3.95-1.12-5.27.45l-9.91,11.78c-1.29,1.52-3.55,1.76-5.12.57l-.15-.12-6.51-5.48c-1.59-1.34-1.79-3.69-.45-5.27l9.91-11.77c1.34-1.59,1.13-3.94-.45-5.27l-11.77-9.91c-1.59-1.34-1.79-3.69-.45-5.27l5.48-6.51c1.32-1.57,3.69-1.78,5.27-.45l11.77,9.91c1.57,1.34,3.94,1.13,5.27-.45l9.91-11.77c1.32-1.57,3.69-1.78,5.26-.45l2.06,1.74,4.44,3.74c1.59,1.34,1.79,3.69.45,5.27l-9.91,11.77c-1.32,1.58-1.12,3.94.45,5.27l11.77,9.91Z"/>
      <path class="cls-1" d="M225.37,180.45l-5.48,6.49c-1.32,1.58-3.76,1.72-5.44.31l-12.48-10.51c-1.69-1.42-4.13-1.28-5.45.3l-9.91,11.77c-1.34,1.57-3.78,1.71-5.45.3l-6.9-5.81-.15-.14-5.68-4.78c1.57,1.2,3.83.96,5.12-.57l9.91-11.78c1.32-1.57,3.69-1.78,5.27-.45l11.77,9.92c1.57,1.32,3.94,1.12,5.26-.45l5.48-6.51c1.34-1.59,1.13-3.94-.45-5.27l-11.77-9.91c-1.57-1.34-1.78-3.69-.45-5.27l9.91-11.77c1.34-1.59,1.13-3.94-.45-5.27l5.98,5.03,5.7,4.8,1.21,1.01c1.67,1.42,1.95,3.84.63,5.42l-9.92,11.77c-1.32,1.58-1.05,4.01.63,5.42l12.48,10.51c1.69,1.41,1.96,3.84.63,5.42Z"/>
      <path class="cls-1" d="M198.65,148.17l9.92-11.77c1.32-1.57,3.76-1.71,5.44-.3"/>
      <path class="cls-1" d="M174.11,183.18c-1.55-1.43-1.77-3.76-.48-5.28l9.91-11.77"/>
    </g>
  </g>
</svg>